<?xml version="1.0" encoding="UTF-8"?>
<svg width="1024px" height="1024px" viewBox="0 0 1024 1024" version="1.1" xmlns="http://www.w3.org/2000/svg" xmlns:xlink="http://www.w3.org/1999/xlink">
    <title>vscode</title>
    <defs>
        <linearGradient x1="50%" y1="0%" x2="50%" y2="100%" id="linearGradient-1">
            <stop stop-color="#FFFFFF" offset="0%"></stop>
            <stop stop-color="#FFFFFF" offset="100%"></stop>
        </linearGradient>
        <rect id="path-2" x="0" y="0" width="805" height="805" rx="175"></rect>
        <filter x="-1.0%" y="-1.0%" width="102.5%" height="102.5%" filterUnits="objectBoundingBox" id="filter-3">
            <feOffset dx="2" dy="2" in="SourceAlpha" result="shadowOffsetOuter1"></feOffset>
            <feGaussianBlur stdDeviation="3" in="shadowOffsetOuter1" result="shadowBlurOuter1"></feGaussianBlur>
            <feColorMatrix values="0 0 0 0 0   0 0 0 0 0   0 0 0 0 0  0 0 0 0.5 0" type="matrix" in="shadowBlurOuter1"></feColorMatrix>
        </filter>
    </defs>
    <g id="页面-1" stroke="none" stroke-width="1" fill="none" fill-rule="evenodd">
        <g id="vscode">
            <rect id="outter" fill-opacity="0" fill="#D8D8D8" x="0" y="0" width="1024" height="1024"></rect>
            <g id="inner" transform="translate(110, 110)">
                <g>
                    <use fill="black" fill-opacity="1" filter="url(#filter-3)" xlink:href="#path-2"></use>
                    <use fill="url(#linearGradient-1)" fill-rule="evenodd" xlink:href="#path-2"></use>
                </g>
                <g id="Vscode" transform="translate(115, 113)" fill-rule="nonzero">
                    <path d="M557.565379,61.0118248 L438.549195,3.57763878 C424.773106,-3.08023748 408.302821,-0.274786625 397.494185,10.5707061 L7.894727,366.596453 C-1.94869051,375.549249 -2.68798474,390.805245 6.24344452,400.672139 C6.7594703,401.230757 7.27549607,401.768685 7.8328039,402.265234 L39.6406325,431.230602 C48.2168235,439.054374 61.1419749,439.628628 70.3751275,432.596112 L539.648965,75.9082995 C546.878999,70.4090613 556.592531,69.488696 564.722546,73.5325568 C572.852562,77.5764176 578,85.8867538 578,94.984063 L578,93.5978633 C578,79.7029863 570.056511,67.0371776 557.565379,61.0118248 Z" id="路径" fill="#0065A9"></path>
                    <path d="M557.565379,514.985117 L438.549195,572.435596 C424.770369,579.073523 408.311811,576.270284 397.494185,565.443064 L7.894727,209.423869 C-1.94869051,200.471757 -2.68798474,185.216929 6.24344452,175.35079 C6.7594703,174.792215 7.27549607,174.254328 7.8328039,173.757816 L39.6406325,144.794665 C48.2268619,136.937349 61.1921392,136.362514 70.4370506,143.429259 L539.648965,500.089782 C546.878999,505.588599 556.592531,506.508894 564.722546,502.465343 C572.852562,498.421791 578,490.112091 578,481.015478 L578,482.505011 C577.954688,496.360025 570.019575,508.972606 557.565379,514.985117 L557.565379,514.985117 Z" id="路径" fill="#007ACC"></path>
                    <path d="M438.520916,572.435109 C424.739296,579.073942 408.277401,576.270321 397.457581,565.441622 C403.519196,571.437362 412.576556,573.206939 420.441439,569.932081 C428.306322,566.657222 433.445864,558.976198 433.483484,550.440798 L433.483484,25.5568019 C433.490562,16.9792051 428.336553,9.24361222 420.428605,5.9628843 C412.520657,2.68215638 403.419195,4.50365834 397.375,10.5766689 C408.187009,-0.264875716 424.653372,-3.07755531 438.438336,3.56249066 L557.458009,60.9173644 C569.991874,66.9134526 577.980157,79.586136 578,93.5053609 L578,482.492239 C578.003326,496.400118 570.049011,509.077892 557.540589,515.100927 L438.520916,572.435109 Z" id="路径" fill="#1F9CF0"></path>
                    <path d="M394.522339,247.540209 C398.18326,244.981135 400.817633,241.191564 401.952076,236.852459 C402.641089,239.863057 402.61513,242.994807 401.876305,245.993409 C400.937591,248.459813 399.489529,250.684662 398.365597,253.06631 C404.222113,248.127021 410.669134,243.944349 417.556628,240.615632 C415.527658,246.921489 409.89116,250.735516 405.749029,255.575091 C406.548831,257.308355 406.927685,259.766283 409.116616,260.27482 C412.513584,261.382543 416.133452,261.608485 419.640322,260.93168 C423.479371,259.605246 425.302077,255.600518 427.217391,252.307742 L427.217391,258.533081 C426.545138,261.048354 425.727097,263.52182 424.767472,265.940768 C425.609369,268.258848 426.489151,270.568453 427.217391,272.920436 L427.217391,276.954829 C426.316562,278.514342 425.3568,280.031477 424.426504,281.569801 C423.1808,279.711394 421.665382,278.051502 419.930777,276.645469 C417.409791,275.86126 414.741852,275.679879 412.139024,276.115743 C414.387101,279.660497 418.136548,281.96003 422.296506,282.34532 C420.785302,283.913308 419.505619,286.2102 417.118842,286.451755 C410.211081,287.498493 403.619031,284.311662 396.749155,284.332851 C395.562081,284.417607 393.773051,284.434559 393.444711,285.909316 C393.444711,289.024104 394.358169,292.066849 394.244513,295.181638 C393.996154,300.512799 392.089258,305.63207 392.017697,310.971708 C392.563352,315.975013 393.749021,320.886344 395.545243,325.583667 C393.347579,325.253182 391.155537,324.885854 388.970031,324.481837 C388.549083,325.363301 388.195486,326.261716 387.875566,327.168607 C389.150955,329.13903 390.776332,330.855794 392.670166,332.232786 C392.328571,332.948743 391.990405,333.666354 391.655681,334.385593 L389.243648,334.97041 C388.692205,336.017148 388.136554,337.055411 387.559854,338.102149 C384.500609,337.401035 381.314947,337.489959 378.298992,338.360656 C376.337373,337.572424 374.392592,336.76724 372.452021,335.957819 C373.666624,332.835209 374.249117,329.49972 374.16528,326.147295 C372.978206,321.985769 367.430108,321.977293 365.746315,318.192931 C363.347403,314.582932 361.869753,310.433101 361.444224,306.110943 C357.979819,304.275972 355.319426,300.93658 351.341465,300.178013 C351.13941,301.911276 350.992078,303.653014 350.697414,305.377802 C349.615878,309.173082 347.673362,312.663542 345.023031,315.573966 C345.187201,317.362321 345.355581,319.1422 345.528169,320.934792 C346.98465,322.307842 348.436922,323.680891 349.876565,325.062417 C347.960928,326.232851 345.953314,327.243413 343.873843,328.083973 C341.518356,328.373899 339.144372,328.482985 336.772445,328.410284 L333.501677,325.1726 C334.657516,321.601107 334.823435,317.779802 333.981558,314.120398 C334.70138,312.425275 335.35385,310.679299 335.981063,308.946036 C331.917972,310.406053 327.533307,310.708152 323.310519,309.819024 C315.582393,306.880023 310.202968,299.752472 309.461321,291.469319 C309.07773,286.157425 311.287543,280.990219 315.384063,277.620165 C314.291264,281.204349 313.947288,284.977469 314.373788,288.702031 C315.324111,294.080428 319.542534,298.269479 324.897494,299.152463 C327.858833,299.109266 330.736811,298.15876 333.148081,296.427553 C332.006732,290.561011 332.536459,284.489129 334.676123,278.912696 C337.908106,273.184196 343.388168,269.091879 349.771328,267.640129 C353.203058,266.355605 356.158711,264.038501 358.236598,261.003722 C360.19955,258.923644 362.354701,257.036373 364.672897,255.367439 C363.713135,254.439359 362.766001,253.502804 361.810449,252.574724 C365.001872,251.474077 367.322484,248.680728 367.834218,245.323836 C373.239194,244.052494 378.572609,242.522645 383.914442,241.039413 C385.704691,242.296306 387.731903,243.170339 389.87086,243.607524 C391.205267,245.073805 391.950345,248.510667 394.501291,247.540209 M378.602075,304.165789 C378.778873,307.420425 378.40002,311.221738 381.439267,313.298264 C381.439267,310.098719 381.24563,306.911888 381.018318,303.720819 L378.602075,304.165789 Z" id="形状" fill="#005CA5"></path>
                </g>
            </g>
        </g>
    </g>
</svg>